<?xml version="1.0" standalone="no"?>
<!DOCTYPE svg PUBLIC "-//W3C//DTD SVG 20010904//EN"
 "http://www.w3.org/TR/2001/REC-SVG-20010904/DTD/svg10.dtd">
<svg version="1.0" xmlns="http://www.w3.org/2000/svg"
 width="50.000000pt" height="50.000000pt" viewBox="0 0 50.000000 50.000000"
 preserveAspectRatio="xMidYMid meet">
<metadata>
Created by potrace 1.16, written by Peter Selinger 2001-2019
</metadata>
<g transform="translate(0.000000,50.000000) scale(0.009766,-0.009766)"
fill="#000000" stroke="none">
<path d="M1615 5113 c-343 -43 -793 -254 -1151 -540 -114 -91 -144 -125 -144
-162 0 -14 29 -79 64 -143 158 -286 371 -561 578 -745 l57 -51 -47 -43 c-548
-496 -719 -1295 -426 -1982 164 -384 500 -724 882 -892 85 -37 109 -39 145 -7
18 16 23 76 9 99 -4 7 -61 39 -127 72 -66 32 -144 74 -172 93 l-53 34 -3 149
c-3 139 -6 157 -36 245 -18 52 -48 124 -68 158 -33 61 -34 66 -24 109 7 25 45
116 86 203 91 194 115 263 115 336 0 114 -64 177 -239 235 -53 17 -104 39
-115 48 -25 21 -50 62 -131 211 -37 69 -82 146 -101 172 l-33 47 48 94 c26 52
76 135 111 186 63 92 210 255 279 310 l37 29 69 -44 c134 -84 357 -167 488
-181 31 -3 57 -9 57 -14 0 -4 -17 -22 -39 -39 -56 -45 -136 -147 -171 -218
-85 -172 -73 -356 34 -515 113 -168 274 -207 635 -153 160 24 176 25 192 10
33 -30 42 -111 49 -474 6 -260 12 -373 24 -423 52 -231 211 -304 431 -197 144
69 313 250 367 393 38 100 41 143 17 309 -12 91 -19 180 -17 219 9 120 70 217
193 304 73 53 196 128 200 123 2 -2 11 -55 21 -118 22 -150 15 -390 -16 -535
-45 -212 -117 -384 -235 -560 -232 -350 -594 -589 -1022 -676 -88 -18 -145
-22 -308 -24 -110 0 -206 -4 -212 -8 -7 -4 -18 -25 -24 -47 -15 -51 5 -87 53
-94 211 -33 520 0 758 81 841 284 1326 1146 1138 2022 -85 398 -325 768 -659
1017 -36 27 -66 53 -67 57 -2 4 41 41 94 83 l96 75 72 -55 c82 -63 270 -253
337 -341 410 -536 524 -1221 309 -1850 -228 -669 -791 -1163 -1492 -1311 -152
-32 -457 -44 -615 -25 -227 28 -426 87 -638 190 -560 271 -951 777 -1082 1400
-24 114 -26 148 -27 351 -1 124 3 264 8 313 11 106 -1 127 -68 127 -71 0 -80
-15 -96 -167 -20 -182 -9 -487 24 -652 86 -427 288 -804 596 -1111 311 -311
701 -513 1150 -595 124 -23 472 -32 607 -16 563 66 1074 349 1430 791 274 340
429 739 465 1197 21 271 -17 568 -108 828 -25 72 -48 139 -50 150 -5 18 7 24
98 55 377 127 693 375 819 643 58 125 73 204 73 397 0 202 -16 296 -84 496
-47 135 -147 351 -179 383 -30 30 -63 27 -198 -18 -425 -139 -734 -369 -868
-646 -52 -106 -71 -178 -85 -310 -10 -92 -2 -242 16 -345 l7 -35 -64 64 c-83
83 -182 168 -259 223 -45 31 -69 57 -87 93 -69 134 -273 436 -332 489 -29 26
-76 25 -106 -4 -41 -38 -33 -72 34 -159 66 -86 221 -320 221 -334 0 -5 -10 -7
-22 -4 -32 7 -304 60 -473 92 -77 14 -148 28 -157 31 -13 4 -489 642 -617 828
l-33 49 83 -6 c181 -13 403 -106 592 -247 113 -85 145 -96 186 -62 11 9 24 32
27 50 6 30 2 37 -42 80 -61 59 -213 161 -313 212 -189 94 -350 131 -568 129
-81 -1 -161 -4 -178 -6z m322 -566 c165 -227 300 -413 300 -414 -1 0 -132 24
-290 55 l-288 56 -214 293 c-118 161 -215 297 -215 301 0 9 87 43 183 72 31
10 200 48 217 49 3 0 141 -185 307 -412z m-682 -12 c96 -131 173 -240 172
-242 -5 -5 -847 161 -847 167 1 6 66 54 170 126 82 57 321 196 327 190 2 -1
82 -110 178 -241z m3395 220 c0 -6 -185 -456 -324 -787 -11 -25 -19 -10 -115
223 -56 138 -100 257 -97 264 11 30 185 148 301 205 151 74 235 108 235 95z
m205 -180 c47 -125 91 -298 99 -390 l7 -70 -163 -67 c-90 -37 -200 -82 -245
-102 l-82 -35 18 47 c11 26 44 106 75 177 31 72 98 228 148 348 56 134 94 214
98 205 4 -7 25 -58 45 -113z m-741 -552 l116 -283 -107 -257 -107 -257 -29 64
c-143 318 -173 676 -75 898 30 66 72 132 79 124 4 -4 59 -134 123 -289z
m-3215 211 c185 -36 373 -72 419 -81 49 -9 80 -19 75 -24 -5 -5 -113 -85 -239
-178 l-229 -169 -33 36 c-120 134 -364 482 -337 482 4 0 159 -30 344 -66z
m1056 -205 c253 -50 265 -53 248 -69 -19 -19 -713 -527 -751 -551 -20 -12 -27
-11 -69 11 -115 61 -347 232 -341 251 2 5 129 101 283 215 278 204 280 205
322 200 24 -3 162 -29 308 -57z m2986 -147 c-46 -215 -205 -406 -469 -562 -68
-40 -293 -143 -299 -137 -2 3 67 175 178 444 l34 83 175 70 c96 38 222 89 280
114 58 24 107 42 108 40 2 -1 -1 -25 -7 -52z m-2171 -13 c168 -33 311 -62 319
-65 9 -3 -18 -28 -69 -66 -267 -195 -601 -356 -860 -413 -149 -33 -514 -29
-535 5 -7 12 796 599 820 600 11 0 157 -27 325 -61z m240 -406 c205 -137 402
-351 517 -561 47 -85 113 -236 113 -258 0 -6 -41 -35 -91 -64 -233 -135 -354
-261 -393 -415 -20 -76 -20 -206 0 -342 22 -145 15 -203 -32 -295 -94 -178
-332 -341 -419 -284 -64 42 -76 113 -85 541 -9 374 -13 413 -57 500 -24 45
-44 65 -90 89 -42 21 -70 20 -269 -9 -197 -29 -280 -31 -355 -9 -111 33 -190
154 -190 294 -1 157 98 297 313 442 75 51 95 60 169 73 103 18 233 55 348 99
98 38 320 148 401 200 30 19 57 35 60 35 3 1 30 -16 60 -36z m-2275 -1092 c83
-150 115 -178 253 -225 62 -21 123 -47 137 -58 44 -34 33 -79 -80 -318 -125
-264 -129 -298 -55 -447 57 -115 79 -188 86 -288 l6 -70 -75 76 c-217 221
-363 508 -424 834 -27 139 -23 437 6 574 12 58 25 109 28 114 3 5 18 -13 33
-39 15 -27 53 -96 85 -153z"/>
</g>
</svg>
